<?xml version="1.0" encoding="UTF-8" standalone="no"?>
<svg
   xmlns:dc="http://purl.org/dc/elements/1.1/"
   xmlns:cc="http://creativecommons.org/ns#"
   xmlns:rdf="http://www.w3.org/1999/02/22-rdf-syntax-ns#"
   xmlns:svg="http://www.w3.org/2000/svg"
   xmlns="http://www.w3.org/2000/svg"
   xmlns:sodipodi="http://sodipodi.sourceforge.net/DTD/sodipodi-0.dtd"
   xmlns:inkscape="http://www.inkscape.org/namespaces/inkscape"
   version="1.1"
   x="0"
   y="0"
   width="115"
   height="115"
   viewBox="0 0 95.833332 95.833332"
   id="svg2"
   inkscape:version="0.48.5 r10040"
   sodipodi:docname="eh15v4.svg">
  <metadata
     id="metadata38">
    <rdf:RDF>
      <cc:Work
         rdf:about="">
        <dc:format>image/svg+xml</dc:format>
        <dc:type
           rdf:resource="http://purl.org/dc/dcmitype/StillImage" />
        <dc:title></dc:title>
      </cc:Work>
    </rdf:RDF>
  </metadata>
  <defs
     id="defs36" />
  <sodipodi:namedview
     pagecolor="#ffffff"
     bordercolor="#666666"
     borderopacity="1"
     objecttolerance="10"
     gridtolerance="10"
     guidetolerance="10"
     inkscape:pageopacity="0"
     inkscape:pageshadow="2"
     inkscape:window-width="1920"
     inkscape:window-height="993"
     id="namedview34"
     showgrid="false"
     fit-margin-top="0"
     fit-margin-left="0"
     fit-margin-right="0"
     fit-margin-bottom="0"
     inkscape:zoom="1.6833333"
     inkscape:cx="-292.21791"
     inkscape:cy="-55.888146"
     inkscape:window-x="0"
     inkscape:window-y="27"
     inkscape:window-maximized="1"
     inkscape:current-layer="Ebene_1" />
  <g
     id="Ebene_1"
     transform="translate(-104.31,6.2573326)">
    <path
       d="m 153.73467,-0.4616668 -3.108,2.492 c -7.251,6.5870004 -10.193,8.6960008 -18.337,12.7690008 -17.452,6.663 -24.215,17.864 -25.753,30.337 l 26.891,7.63 -18.584,-8.615 c 1.332,-13.899 10.037,-23.301 25.907,-26.121 l 31.29,0 -22.583,22.183 0,5.938 6.83,0 c 6.498,0 11.206,1.09 14.153,3.261 2.988,2.202 4.492,5.533 4.492,10.031 0,5.31 -1.418,9.359 -4.307,12.091 -2.858,2.703 -7.056,3.968 -12.553,4.031 -5.957,0.068 -11.658,-1.553 -16.153,-4.061 -1.83,1.974 -3.551,3.646 -5.877,4.892 -1.724,0.923 -3.672,1.382 -4.676,1.23 -1.238,-0.187 -1.475,-1.537 -1.477,-2.523 -0.007,-3.349 1.12,-6.599 1.692,-8.522 l -1.446,-0.739 c -1.563,2.679 -2.985,5.606 -3.846,8.277 -2.294,0.964 -4.174,1.469 -5.815,1.692 -1.642,0.223 -2.923,0.282 -3.569,-0.185 -0.942,-0.68 -0.76,-2.058 -0.492,-2.984 0.863,-2.985 2.472,-5.255 3.815,-7.507 l -1.231,-1.077 c -1.721,1.735 -4.657,4.733 -6.553,8.153 -1.339,2.413 -1.926,4.56 -1.477,6.246 0.448,1.686 1.968,2.808 4.43,3.169 2.4,0.352 5.768,-0.034 10.215,-1.2 0.664,2.558 2.248,3.354 4.708,3.354 2.792,0 7.056,-1.688 12.153,-4.8 4.605,1.96 9.807,2.923 15.599,2.923 8.011,0 14.954,-1.928 19.568,-7.323 2.11,2.493 5.247,4.092 8.769,4.092 6.352,0 11.507,-5.154 11.507,-11.507 0,-4.873 -3.044,-9.031 -7.323,-10.707 l 0,5.261 c 1.461,1.206 2.369,3.004 2.369,5.046 0,3.63 -2.923,6.585 -6.553,6.585 -3.63,0 -6.585,-2.955 -6.585,-6.585 0,-2.031 0.922,-3.84 2.37,-5.046 l 0,-5.876 c -0.578,-4.436 -2.274,-7.925 -5.108,-10.461 -3.498,-3.249 -8.546,-4.861 -15.168,-4.861 l -3.015,0 22.614,-22.491 0,-6.369 -25.999,0 c 0.167,-2.6710004 -0.461,-5.4580008 -1.015,-8.2150008 l -0.769,-3.908 z m -3.293,9.1070004 c 0.119,1.086 0.173,2.1400004 0.124,3.0160004 l -3.631,0 c 1.19,-0.975 2.401,-1.9980004 3.507,-3.0160004 z m -21.383,23.0150004 c -1.322,0.868 -2.513,1.938 -3.507,3.169 -1.156,1.43 -2.039,3.084 -2.616,4.83 1.861,-0.799 3.883,-1.207 5.908,-1.2 1.988,0.007 3.987,0.415 5.815,1.2 -0.216,-1.911 -1.011,-3.762 -2.216,-5.261 -0.917,-1.142 -2.074,-2.084 -3.384,-2.738 z m 55.012,23.444 0,10.923 4.646,0 0,-10.923 -4.646,0 z"
       id="path3420"
       inkscape:connector-curvature="0"
       style="fill:#1ec290" />
  </g>
</svg>
