<?xml version="1.0" encoding="utf-8"?>
<!-- Generator: Adobe Illustrator 16.0.4, SVG Export Plug-In . SVG Version: 6.00 Build 0)  -->
<!DOCTYPE svg PUBLIC "-//W3C//DTD SVG 1.1//EN" "http://www.w3.org/Graphics/SVG/1.1/DTD/svg11.dtd">
<svg version="1.1" id="Ebene_1" xmlns="http://www.w3.org/2000/svg" xmlns:xlink="http://www.w3.org/1999/xlink" x="0px" y="0px"
	 width="396.85px" height="141.731px" viewBox="0 0 396.85 141.731" enable-background="new 0 0 396.85 141.731"
	 xml:space="preserve">
<g id="cccamp15-logo-small">
	<path id="cccamp_words" fill="#FFFFFF" d="M199.947,108.868c-1.184-3.318-2.495-6.606-3.542-9.97
		c-1.616-5.193-3.048-10.45-4.591-15.667c-0.134-0.445-0.523-0.817-0.794-1.227c-0.153,0.476-0.461,0.961-0.435,1.425
		c0.082,1.402,0.294,2.795,0.456,4.191c-0.764-1.77-1.375-3.571-1.637-5.42c-0.315-2.241-1.459-3.18-3.631-2.623
		c-0.187,0.05-0.525-0.022-0.615-0.158c-0.646-0.969-0.914-0.271-1.171,0.263c-0.331,0.691-0.6,1.408-0.951,2.242
		c-0.945-1.037-1.292-0.424-1.436,0.4c-0.3,1.724-1.48,3.046-1.866,4.822c-0.706,3.236-2.076,6.332-3.203,9.479
		c-1.842,5.146-3.138,10.49-5.588,15.414c-0.147,0.292-0.112,0.671-0.157,0.985c1.336,0.31,1.986-0.298,2.428-1.302
		c0.269-0.613,0.543-1.234,0.918-1.783c0.203-0.297,0.619-0.449,0.814-0.579c0.144,0.734,0.248,1.267,0.354,1.798
		c0.296-0.427,0.628-0.836,0.882-1.291c0.436-0.771,0.622-1.895,1.268-2.286c1.176-0.712,2.576-1.166,3.942-1.424
		c2.275-0.425,4.6-0.608,6.903-0.897c-2.415,0.671-4.869,0.993-7.327,1.306c-0.886,0.115-1.859,0.113-1.624,1.573
		c0.474-0.057,0.912-0.08,1.338-0.161c3.938-0.738,7.873-1.511,11.821-2.193c0.348-0.059,1.02,0.355,1.15,0.703
		c0.553,1.454,0.922,2.981,1.442,4.451c0.123,0.35,0.567,0.59,0.866,0.878c0.128-0.109,0.256-0.214,0.384-0.324
		c-0.874-2.53-1.75-5.067-2.783-8.053c0.609,0.39,0.96,0.484,1.031,0.68c0.642,1.774,1.271,3.553,1.83,5.354
		c0.362,1.169,0.749,2.168,2.25,2.191c0.29,0.003,0.634,0.537,0.842,0.894c0.589,1.014,1.099,2.069,1.687,3.082
		c0.117,0.2,0.443,0.276,0.671,0.408c0.091-0.294,0.331-0.632,0.252-0.87C201.432,113.064,200.691,110.967,199.947,108.868z
		 M180.489,102.567c1.823-4.921,3.647-9.847,5.462-14.744c1.671,4.483,3.339,8.95,4.94,13.256
		C187.577,101.552,184.014,102.063,180.489,102.567z M168.617,82.031c-0.026,0.708-0.305,1.407-0.533,2.096
		c-0.037,0.109-0.436,0.134-0.445,0.217c-0.258,2.661-2.058,1.663-3.164,1.092c-2.994-1.545-5.448-0.694-7.966,1.078
		c-4.031,2.833-6.152,6.655-6.222,11.546c-0.048,3.277,1.981,5.744,5.237,6.176c2.016,0.27,4.105,0.031,6.159-0.038
		c1.143-0.036,2.125,0.19,2.888,1.11c0.146,0.177,0.453,0.33,0.675,0.321c0.611-0.036,1.22-0.171,0.93,0.807
		c-0.02,0.068,0.021,0.21,0.077,0.242c1.564,0.843,0.307,1.25-0.282,1.717c-0.251,0.2-0.6,0.279-0.903,0.411
		c0.406,1.011,0.219,1.399-0.975,1.349c-1.765-0.071-3.553-0.033-5.307,0.169c-5.692,0.659-10.014-1.501-13.191-6.162
		c-0.08-0.117-0.167-0.225-0.537-0.227c0.314,0.843,0.557,1.725,0.961,2.518c0.436,0.854,1.026,1.631,1.566,2.468
		c-0.316,0.248-0.564,0.441-0.892,0.7c-2.651-3.726-4.786-7.43-3.553-12.302c1.127-4.459,3.461-8.189,6.219-11.725
		c1.198-1.541,2.287-3.269,3.8-4.429c2.099-1.602,4.584-2.652,7.36-2.562c0.387,0.012,0.767,0.216,1.15,0.328
		c-0.314,0.255-0.623,0.512-0.94,0.761c-0.103,0.08-0.229,0.137-0.624,0.357c1.537,0.187,2.798,0.292,4.039,0.506
		c1.135,0.197,2.261,0.476,3.369,0.793C167.933,81.466,168.626,81.811,168.617,82.031z M236.787,95.869
		c-0.223,4.202-0.404,8.407-0.687,12.604c-0.037,0.529-0.692,0.992-0.87,1.546c-0.23,0.724-0.285,1.511-0.385,2.27
		c-0.092,0.701,0.609,1.655-0.926,2.074c-0.094-1.599-0.184-3.116-0.271-4.633c-0.037-0.652,0.052-1.409-1.045-0.905
		c-0.077,0.037-0.635-0.598-0.688-0.96c-0.174-1.205-0.219-2.428-0.481-3.648c-0.09,1.229-0.181,2.451-0.269,3.676
		c-0.235,0.021-0.473,0.033-0.71,0.051c-0.113-0.683-0.336-1.376-0.32-2.059c0.041-1.786,0.317-3.576,0.257-5.354
		c-0.104-3.103-0.391-6.2-0.895-9.319c-2.187,4.093-4.386,8.179-6.558,12.276c-1.266,2.388-2.487,4.799-3.726,7.194
		c-0.019,0.033-0.032,0.092-0.053,0.095c-1.014,0.173-2.026,0.339-3.04,0.507c0.01-0.33-0.092-0.726,0.047-0.984
		c0.769-1.399,1.595-2.769,2.219-3.828c-1.085-1.835-2.225-3.427-3.005-5.176c-1.478-3.313-2.75-6.718-4.104-10.084
		c-0.149,0.036-0.293,0.071-0.439,0.11c-0.031,0.212-0.072,0.425-0.085,0.64c-0.219,3.498-0.483,6.996-0.635,10.499
		c-0.157,3.656-0.205,7.321-0.301,10.986c-0.006,0.224,0.074,0.513-0.036,0.661c-0.302,0.413-0.681,0.77-1.03,1.146
		c-0.113-0.454-0.403-0.949-0.312-1.361c0.57-2.569-0.379-5.054-0.614-7.577c-0.004-0.577-0.032-1.157-0.032-1.734
		c-0.049,0.583-0.021,1.159,0.032,1.734c0.003,0.413-0.004,0.825-0.052,1.232c-0.16,1.368-0.458,2.718-0.734,4.067
		c-0.033,0.163-0.295,0.388-0.449,0.386c-0.162,0-0.412-0.204-0.47-0.373c-0.159-0.445-0.233-0.915-0.327-1.324
		c-0.417,1.084-0.846,2.2-1.273,3.317c-0.197-0.04-0.393-0.082-0.59-0.127c0.17-11.449,0.76-22.909-1.114-34.675
		c0.63,0.474,0.989,0.737,1.377,1.032c0.099-0.589,0.132-1.19,0.327-1.734c0.08-0.223,0.717-0.497,0.758-0.45
		c0.897,1.035,1.972,1.95,1.497,3.644c-0.26,0.924-0.047,1.976,0.106,2.994c0.319-1.581,0.839-2.984,2.387-3.678
		c0.195-0.089,0.603,0.292,0.675,0.329c0.768,0,1.333,0,2.064,0c0.005-0.005,0.246-0.269,0.488-0.532
		c0.268,0.35,0.634,0.664,0.791,1.058c1.858,4.683,3.681,9.384,5.528,14.07c0.284,0.719,0.645,1.407,1.062,2.306
		c0.87-1.699,1.754-3.192,2.42-4.777c1.38-3.272,2.631-6.602,3.967-9.894c0.152-0.367,0.516-0.648,0.78-0.97
		c0.245,0.473,0.511,0.934,0.715,1.419c0.051,0.124-0.097,0.327-0.155,0.489c0.108,0.051,0.215,0.094,0.323,0.143
		c0.379-0.607,0.731-1.232,1.153-1.812c0.248-0.34,0.728-0.908,0.895-0.844c0.646,0.251,1.371,0.618,1.024,1.581
		c-0.022,0.055,0.023,0.139,0.047,0.248c0.954,0.346,1.401,0.192,1.142-0.986c-0.097-0.442,0.101-0.946,0.163-1.42
		c0.162-0.011,0.324-0.021,0.49-0.033c0.281,0.808,0.561,1.615,0.854,2.451c0.274-0.106,0.55-0.216,1.14-0.443
		c0.327,4.133,0.642,8.104,0.963,12.144C236.717,94.557,236.828,95.091,236.787,95.869z M280.603,103.563
		c-0.287,0.381-0.533,0.79-0.889,1.324c5.557-0.864,10.926-1.367,15.762,2.025c-0.489,0.688-0.794,1.12-1.2,1.688
		c0.964,0.146,1.66,0.252,2.354,0.359c0,0.075,0,0.155,0,0.234c-0.292,0.093-0.589,0.187-0.882,0.282
		c0.244,1.28-0.057,1.496-1.337,1.15c-3.278-0.88-6.624-0.73-9.963-0.501c-1.147,0.081-2.295,0.135-3.455,0.47
		c1.48,0.12,2.963,0.215,4.442,0.368c2.77,0.281,5.539,0.575,8.302,0.915c0.37,0.048,0.709,0.363,1.502,0.793
		c-0.799,0.234-1.142,0.442-1.463,0.418c-5.335-0.411-10.663-0.91-16.004-1.234c-1.261-0.077-2.561,0.41-3.836,0.665
		c-0.135,0.028-0.304,0.223-0.337,0.371c-0.242,1.118-0.458,2.243-0.673,3.34c-1.509,0.593-1.222-0.54-1.274-1.278
		c-0.244-3.351-0.432-6.722,0.764-9.944c0.881-2.373,2.228-4.573,4.385-5.926c3.811-2.382,7.779-4.513,11.687-6.746
		c0.255-0.148,0.547-0.243,0.783-0.418c1.258-0.958,2.968-1.819,2.702-3.631c-0.349-2.406-1.817-4.177-4.223-5.012
		c-3.871-1.35-7.418-0.483-10.739,1.638c-0.818,0.522-1.417,1.382-2.184,1.996c-0.274,0.221-0.747,0.197-1.131,0.286
		c0.004-0.333-0.069-0.69,0.027-0.995c0.192-0.623,0.479-1.215,0.817-2.037c-1.975,1.14-3.738,2.162-5.5,3.181
		c-0.121-0.146-0.242-0.292-0.366-0.435c0.152-0.285,0.233-0.671,0.466-0.839c1.291-0.937,2.627-1.813,3.931-2.739
		c0.225-0.16,0.368-0.442,0.546-0.67c-0.254,0.017-0.512,0.06-0.765,0.042c-0.3-0.021-0.59-0.097-0.883-0.148
		c0.079-0.241,0.087-0.62,0.25-0.709c3.254-1.749,6.408-3.823,10.155-4.313c5.58-0.739,11.388,1.35,14.012,6.889
		c1.135,2.398,0.493,4.735-0.677,6.928c-1.68,3.152-4.653,4.914-7.568,6.65C285.431,99.613,282.568,100.972,280.603,103.563z
		 M317.943,85.562c-2.178-2.705-4.751-4.784-8.438-4.922c-0.145-0.006-0.353-0.011-0.428-0.102
		c-1.221-1.479-2.729-0.841-3.938-0.262c-3.961,1.909-6.582,5.086-7.102,9.479c-0.802,6.756-0.25,13.258,5.046,18.425
		c2.737,2.672,5.771,4.483,9.797,4.06c2.814-0.294,5.176-1.247,7.039-3.539c2.662-3.267,2.83-7.099,2.978-11.169
		c-0.117-1.045-0.216-2.265-0.401-3.472C321.979,90.698,319.988,88.104,317.943,85.562z M313.175,111.041
		c-1.769-0.208-3.537-0.422-5.306-0.634c0.025-0.197,0.047-0.4,0.073-0.599c1.762,0.2,3.52,0.403,5.279,0.607
		C313.206,110.623,313.191,110.833,313.175,111.041z M306.212,104.338c-2.28-2.111-3.108-4.899-3.28-7.795
		c-0.127-2.068,0.14-4.256,0.732-6.243c0.74-2.482,2.703-4.062,5.335-4.271c2.66-0.21,4.67,1.123,5.814,3.52
		c0.88,1.842,1.562,3.779,2.155,5.246c-0.537,3.862-1.097,7.04-3.525,9.648C311.977,106.013,308.171,106.151,306.212,104.338z
		 M313.774,109.321c2.948-2.015,5.498-4.184,6.479-7.657C320.437,105.141,316.755,109.536,313.774,109.321z M364.458,99.66
		c0.729,5.215-1.822,10.355-7.722,11.603c-4.481,0.943-8.678,0.628-12.895-0.924c-0.711-0.26-1.536-0.227-2.23-0.517
		c-0.667-0.282-1.232-0.806-1.842-1.225c0.588-0.235,1.172-0.469,1.793-0.714c-0.156-0.497-0.434-1.308-0.621-2.142
		c-0.01-0.044,0.737-0.433,1.077-0.366c2.552,0.521,5.087,1.117,7.631,1.688c0.03-0.144,0.062-0.286,0.092-0.43
		c-1.552-0.289-3.11-0.558-4.658-0.875c-0.798-0.165-1.617-0.324-2.358-0.646c-0.315-0.135-0.45-0.68-0.668-1.04
		c0.394-0.054,0.853-0.269,1.177-0.143c3.035,1.181,6.137,1.729,9.403,1.249c1.983-0.294,3.421-1.538,3.706-3.428
		c0.237-1.553-0.92-3.586-2.65-4.014c-1.614-0.402-3.34-0.373-5.019-0.479c-0.222-0.012-0.458,0.315-0.702,0.457
		c-0.275,0.155-0.576,0.26-0.851,0.415c-0.202,0.11-0.409,0.242-0.562,0.406c-0.175,0.187-0.257,0.56-0.445,0.609
		c-0.994,0.277-2.023,0.429-3.01,0.72c-0.549,0.161-1.024,0.551-1.559,0.767c-0.223,0.086-0.521-0.014-0.783-0.032
		c0.031-0.226-0.022-0.58,0.103-0.66c2.556-1.59,1.888-4.146,1.868-6.447c-0.027-3.116-0.219-6.232-0.342-9.35
		c-0.061-1.518-0.167-3.034-0.169-4.553c0-0.53,0.25-1.064,0.385-1.597c0.414,0.438,0.825,0.872,1.255,1.321
		c1.822,0,3.721,0,5.623,0c1.979,0.002,3.962-0.065,5.938,0.028c3.365,0.159,6.727,0.406,10.087,0.655
		c0.291,0.021,0.559,0.322,1.224,0.731c-2.137,0.311-3.752,0.545-5.463,0.797c0.161,0.327,0.308,0.636,0.508,1.037
		c-0.609,0.201-1.154,0.386-1.709,0.569c0.201,0.269,0.386,0.514,0.625,0.826c-0.406,0.223-0.813,0.634-1.054,0.554
		c-2.175-0.721-4.041,1.305-6.253,0.603c-0.946-0.301-2.143-0.257-3.104,0.03c-1.421,0.431-0.221,1.767-0.583,2.688
		c-0.38,0.981-0.196,2.181-0.254,3.171c1.527,0,3.034-0.03,4.542,0.007C358.679,91.126,363.912,95.715,364.458,99.66z
		 M336.993,91.12c0.042,5.834,0.182,11.667,0.069,17.497c-0.017,0.826-1.176,1.665-1.883,2.429c-0.281,0.307-0.766,0.43-1.198,0.657
		c-0.372-0.484-0.744-0.968-1.432-1.869c-0.391,1.017-0.615,1.775-0.979,2.468c-0.19,0.357-0.588,0.683-0.968,0.821
		c-0.13,0.048-0.704-0.507-0.701-0.785c0.015-3.784,0.038-7.572,0.184-11.352c0.15-3.872,0.442-7.744,0.657-11.614
		c0.013-0.207-0.095-0.422-0.196-0.83c-2.026,0.702-3.998,1.388-5.968,2.071c-0.083-0.188-0.167-0.382-0.25-0.573
		c0.402-0.344,0.864-0.636,1.181-1.038c0.206-0.269,0.392-0.871,0.253-1.038c-1.195-1.407-1.13-1.831,0.429-2.817
		c1.59-1.005,3.134-2.085,4.701-3.132c0.116-0.076,0.284-0.215,0.365-0.181c1.717,0.745,2.727-0.896,4.121-1.201
		c0.483-0.104,1.005-0.059,1.429-0.077c-0.2,0.92-0.355,1.619-0.525,2.396c0.365,0.151,0.727,0.303,0.707,0.294
		C336.989,86.005,336.971,88.561,336.993,91.12z M255.623,80.554c-3.103-0.444-6.333,0.018-9.51,0.001
		c-0.681-0.005-1.356-0.359-2.043-0.495c-0.203-0.039-0.579,0.062-0.649,0.209c-0.441,0.918-0.825,1.056-1.37,0.064
		c-0.114-0.211-0.531-0.25-1.014-0.459c0.11,1.075,0.293,1.915,0.264,2.748c-0.176,5.208-0.459,10.408-0.568,15.619
		c-0.03,1.498,0.532,3.008,0.585,4.52c0.096,2.832,0.047,5.673,0.005,8.508c-0.022,1.682-0.137,3.365-0.211,5.047
		c0.15,0.031,0.297,0.061,0.446,0.092c0.997-1.524,0.929-3.396,1.4-5.185c1.032,0.862,1.481,0.8,1.748-0.521
		c0.408-2.038,0.657-4.119,0.836-6.19c0.309-3.59,0.344-3.659,3.893-3.709c4.45-0.059,8.451-1.503,12.068-4.038
		c3.056-2.142,3.71-6.089,3.047-8.98C263.529,83.331,259.328,81.087,255.623,80.554z M259.176,89.865
		c-0.485,2.492-1.58,4.364-4.324,4.813c-2.615,0.425-5.218,0.883-8.04,1.355c0.3-2.58,0.583-4.709,0.783-6.847
		c0.084-0.887-0.051-1.794,0.014-2.687c0.019-0.261,0.358-0.668,0.6-0.708c3.335-0.54,6.581-0.283,9.606,1.345
		C258.863,87.695,259.433,88.554,259.176,89.865z M144.063,38.673c0-6.695,3.362-10.855,8.927-10.855
		c1.744,0,2.751,0.184,4.342,0.766l1.284,0.46c0.154,0.06,0.214,0.182,0.154,0.336l-0.429,1.253
		c-0.061,0.186-0.184,0.245-0.366,0.186l-1.284-0.491c-1.253-0.458-2.171-0.58-3.701-0.58c-4.341,0-6.849,3.303-6.849,8.927
		c0,5.599,2.508,8.929,6.849,8.929c1.468,0,2.416-0.184,3.762-0.673l1.253-0.426c0.152-0.062,0.275,0,0.336,0.152l0.459,1.253
		c0.061,0.154,0,0.276-0.152,0.337l-1.255,0.459c-1.621,0.581-2.691,0.794-4.403,0.794C147.425,49.498,144.063,45.34,144.063,38.673
		z M161.95,48.919V28.431c0-0.183,0.092-0.275,0.276-0.275h1.468c0.183,0,0.275,0.093,0.275,0.275v9.052h11.65v-9.052
		c0-0.183,0.091-0.275,0.275-0.275h1.498c0.184,0,0.276,0.093,0.276,0.275v20.488c0,0.182-0.092,0.274-0.276,0.274h-1.498
		c-0.184,0-0.275-0.093-0.275-0.274v-9.604h-11.65v9.604c0,0.182-0.093,0.274-0.275,0.274h-1.468
		C162.042,49.193,161.95,49.101,161.95,48.919z M180.389,49.193h1.59c0.185,0,0.275-0.062,0.338-0.215l2.077-5.138h10.152
		l2.08,5.138c0.061,0.153,0.151,0.215,0.336,0.215h1.56c0.184,0,0.274-0.124,0.213-0.307l-6.267-15.227
		c-0.674-1.715-1.346-3.577-1.807-5.259c-0.029-0.184-0.151-0.246-0.304-0.246h-1.803c-0.155,0-0.277,0.062-0.308,0.246
		c-0.458,1.682-1.1,3.576-1.773,5.259l-6.299,15.227C180.114,49.069,180.207,49.193,180.389,49.193z M187.942,35.219
		c0.581-1.405,1.1-2.997,1.315-4.067c0.061-0.274,0.335-0.274,0.396,0c0.246,1.07,0.765,2.691,1.315,4.067l2.812,6.757h-8.622
		L187.942,35.219z M217.236,38.673c0-6.664-3.364-10.855-8.837-10.855c-5.505,0-8.868,4.191-8.868,10.855
		c0,6.667,3.363,10.825,8.868,10.825C213.872,49.498,217.236,45.34,217.236,38.673z M201.612,38.673
		c0-5.594,2.507-8.927,6.788-8.927c4.281,0,6.758,3.333,6.758,8.927c0,5.599-2.477,8.929-6.758,8.929
		C204.119,47.602,201.612,44.271,201.612,38.673z M219.316,47.999c-0.152-0.061-0.214-0.184-0.152-0.335l0.459-1.254
		c0.061-0.184,0.183-0.245,0.336-0.184l1.222,0.458c1.468,0.521,2.966,0.917,5.107,0.917c2.873,0,5.289-1.375,5.289-3.853
		c0-1.802-1.559-2.842-3.303-3.517l-4.25-1.589c-3.364-1.253-4.556-2.906-4.556-5.473c0-3.366,2.6-5.354,6.635-5.354
		c1.59,0,3.057,0.277,4.618,0.766l1.528,0.49c0.184,0.062,0.245,0.183,0.184,0.367l-0.429,1.254
		c-0.061,0.152-0.183,0.213-0.336,0.152l-1.467-0.458c-1.346-0.43-2.63-0.643-4.098-0.643c-2.751,0-4.586,1.315-4.586,3.425
		c0,1.407,0.643,2.721,3.302,3.699l4.22,1.592c2.874,1.068,4.617,2.506,4.617,5.287c0,3.642-3.089,5.749-7.369,5.749
		c-2.293,0-4.006-0.397-5.749-1.038L219.316,47.999z M144.063,64.104c0-6.693,3.362-10.854,8.927-10.854
		c1.744,0,2.751,0.185,4.342,0.766l1.284,0.458c0.154,0.062,0.214,0.183,0.154,0.335l-0.429,1.255
		c-0.061,0.184-0.184,0.245-0.366,0.184l-1.284-0.488c-1.253-0.461-2.171-0.582-3.701-0.582c-4.341,0-6.849,3.304-6.849,8.928
		c0,5.596,2.508,8.93,6.849,8.93c1.468,0,2.416-0.184,3.762-0.673l1.253-0.428c0.152-0.062,0.275,0,0.336,0.152l0.459,1.254
		c0.061,0.152,0,0.276-0.152,0.337l-1.255,0.458c-1.621,0.581-2.691,0.794-4.403,0.794
		C147.425,74.929,144.063,70.771,144.063,64.104z M178.279,64.104c0-6.665-3.364-10.854-8.837-10.854
		c-5.504,0-8.867,4.189-8.867,10.854c0,6.666,3.363,10.824,8.867,10.824C174.915,74.929,178.279,70.771,178.279,64.104z
		 M169.442,73.034c-4.281,0-6.788-3.334-6.788-8.93c0-5.595,2.507-8.928,6.788-8.928s6.759,3.333,6.759,8.928
		C176.201,69.7,173.723,73.034,169.442,73.034z M198.277,61.02c0-1.379,0.062-2.846,0.214-4.069
		c0.032-0.365-0.275-0.488-0.397-0.092c-0.305,0.827-0.642,1.622-1.009,2.446l-4.157,9.051c-0.368,0.854-0.827,2.05-1.163,3.027
		c-0.031,0.153-0.152,0.214-0.305,0.214h-1.438c-0.153,0-0.275-0.061-0.305-0.214c-0.337-0.978-0.796-2.202-1.193-3.027l-4.096-9.02
		c-0.399-0.855-0.734-1.65-1.071-2.478c-0.121-0.396-0.397-0.273-0.366,0.092c0.121,1.224,0.183,2.69,0.183,4.069v13.331
		c0,0.182-0.092,0.275-0.275,0.275h-1.469c-0.183,0-0.274-0.094-0.274-0.275V53.86c0-0.182,0.092-0.273,0.274-0.273h2.415
		c0.154,0,0.276,0.062,0.307,0.245c0.245,0.765,0.61,1.682,0.949,2.415l4.525,9.998c0.336,0.826,0.673,1.744,0.888,2.507
		c0.09,0.31,0.335,0.31,0.428,0c0.245-0.763,0.55-1.65,0.886-2.475l4.557-10.03c0.336-0.733,0.703-1.65,0.916-2.415
		c0.032-0.153,0.154-0.245,0.308-0.245h2.446c0.183,0,0.276,0.092,0.276,0.273v20.49c0,0.182-0.093,0.275-0.276,0.275h-1.499
		c-0.183,0-0.275-0.094-0.275-0.275V61.02z M221.303,61.02c0-1.379,0.061-2.846,0.214-4.069c0.032-0.365-0.274-0.488-0.396-0.092
		c-0.306,0.827-0.643,1.622-1.009,2.446l-4.16,9.051c-0.367,0.854-0.825,2.05-1.161,3.027c-0.031,0.153-0.153,0.214-0.306,0.214
		h-1.437c-0.153,0-0.277-0.061-0.306-0.214c-0.336-0.978-0.796-2.202-1.193-3.027l-4.097-9.02c-0.397-0.855-0.734-1.65-1.071-2.478
		c-0.122-0.396-0.396-0.273-0.366,0.092c0.123,1.224,0.184,2.69,0.184,4.069v13.331c0,0.182-0.092,0.275-0.275,0.275h-1.468
		c-0.185,0-0.276-0.094-0.276-0.275V53.86c0-0.182,0.091-0.273,0.276-0.273h2.415c0.153,0,0.276,0.062,0.306,0.245
		c0.245,0.765,0.612,1.682,0.948,2.415l4.525,9.998c0.336,0.826,0.672,1.744,0.886,2.507c0.092,0.31,0.337,0.31,0.428,0
		c0.245-0.763,0.551-1.65,0.887-2.475l4.557-10.03c0.336-0.733,0.704-1.65,0.917-2.415c0.03-0.153,0.152-0.245,0.306-0.245h2.446
		c0.183,0,0.275,0.092,0.275,0.273v20.49c0,0.182-0.092,0.275-0.275,0.275h-1.499c-0.182,0-0.275-0.094-0.275-0.275V61.02z
		 M242.495,66.369c0,5.382-2.874,8.56-7.796,8.56c-4.924,0-7.798-3.178-7.798-8.56V53.86c0-0.182,0.093-0.273,0.275-0.273h1.469
		c0.184,0,0.275,0.092,0.275,0.273v12.509c0,4.218,2.11,6.665,5.78,6.665s5.779-2.447,5.779-6.665V53.86
		c0-0.182,0.091-0.273,0.274-0.273h1.468c0.183,0,0.275,0.092,0.275,0.273V66.369z M246.042,74.351V53.86
		c0-0.182,0.092-0.273,0.275-0.273h1.926c0.153,0,0.244,0.062,0.306,0.215c0.458,0.884,1.131,2.08,1.713,2.964l8.714,12.782
		c0.428,0.644,0.794,1.346,1.008,1.835c0.123,0.276,0.428,0.153,0.367-0.124c-0.151-0.761-0.213-1.833-0.213-2.903V53.86
		c0-0.182,0.091-0.273,0.275-0.273h1.467c0.185,0,0.276,0.092,0.276,0.273v20.49c0,0.182-0.092,0.275-0.276,0.275h-1.896
		c-0.151,0-0.244-0.062-0.305-0.215c-0.428-0.919-1.133-2.079-1.713-2.999l-8.714-12.779c-0.397-0.643-0.794-1.346-1.01-1.804
		c-0.121-0.275-0.428-0.186-0.367,0.121c0.123,0.764,0.215,1.803,0.215,2.904v14.496c0,0.182-0.092,0.275-0.276,0.275h-1.498
		C246.134,74.626,246.042,74.532,246.042,74.351z M268.028,53.86v20.49c0,0.182-0.092,0.275-0.275,0.275h-1.468
		c-0.183,0-0.275-0.094-0.275-0.275V53.86c0-0.182,0.092-0.273,0.275-0.273h1.468C267.936,53.587,268.028,53.679,268.028,53.86z
		 M270.901,64.104c0-6.693,3.364-10.854,8.929-10.854c1.743,0,2.753,0.185,4.342,0.766l1.286,0.458
		c0.151,0.062,0.212,0.183,0.151,0.335l-0.427,1.255c-0.062,0.184-0.184,0.245-0.368,0.184l-1.283-0.488
		c-1.256-0.461-2.172-0.582-3.701-0.582c-4.341,0-6.849,3.304-6.849,8.928c0,5.596,2.508,8.93,6.849,8.93
		c1.468,0,2.417-0.184,3.759-0.673l1.255-0.428c0.153-0.062,0.276,0,0.337,0.152l0.457,1.254c0.062,0.152,0,0.276-0.151,0.337
		l-1.252,0.458c-1.623,0.581-2.693,0.794-4.405,0.794C274.265,74.929,270.901,70.771,270.901,64.104z M287.414,74.626h1.592
		c0.182,0,0.274-0.062,0.336-0.215l2.078-5.138h10.151l2.081,5.138c0.06,0.152,0.151,0.215,0.336,0.215h1.559
		c0.184,0,0.277-0.125,0.215-0.308l-6.269-15.229c-0.672-1.712-1.346-3.576-1.804-5.258c-0.031-0.184-0.154-0.245-0.306-0.245
		h-1.805c-0.153,0-0.276,0.062-0.305,0.245c-0.46,1.682-1.102,3.579-1.774,5.258L287.2,74.318
		C287.139,74.501,287.231,74.626,287.414,74.626z M294.967,60.649c0.581-1.406,1.102-2.996,1.314-4.064
		c0.062-0.276,0.336-0.276,0.398,0c0.242,1.068,0.765,2.689,1.314,4.064l2.812,6.76h-8.623L294.967,60.649z M303.713,55.146V53.86
		c0-0.182,0.092-0.273,0.276-0.273h15.929c0.184,0,0.276,0.092,0.276,0.273v1.286c0,0.183-0.093,0.275-0.276,0.275h-6.94v18.929
		c0,0.182-0.092,0.275-0.276,0.275h-1.498c-0.184,0-0.273-0.094-0.273-0.275V55.422h-6.94
		C303.805,55.422,303.713,55.329,303.713,55.146z M324.415,74.626h-1.467c-0.184,0-0.276-0.094-0.276-0.275V53.86
		c0-0.182,0.093-0.273,0.276-0.273h1.467c0.186,0,0.276,0.092,0.276,0.273v20.49C324.691,74.532,324.6,74.626,324.415,74.626z
		 M336.432,74.929c5.473,0,8.836-4.158,8.836-10.824c0-6.665-3.363-10.854-8.836-10.854c-5.504,0-8.868,4.189-8.868,10.854
		C327.564,70.771,330.928,74.929,336.432,74.929z M336.432,55.177c4.281,0,6.757,3.333,6.757,8.928c0,5.596-2.476,8.93-6.757,8.93
		c-4.282,0-6.788-3.334-6.788-8.93C329.644,58.51,332.15,55.177,336.432,55.177z M348.143,74.351V53.86
		c0-0.182,0.093-0.273,0.275-0.273h1.929c0.151,0,0.244,0.062,0.303,0.215c0.461,0.884,1.132,2.08,1.714,2.964l8.713,12.782
		c0.431,0.644,0.796,1.346,1.01,1.835c0.123,0.276,0.429,0.153,0.368-0.124c-0.152-0.761-0.214-1.833-0.214-2.903V53.86
		c0-0.182,0.093-0.273,0.274-0.273h1.468c0.183,0,0.275,0.092,0.275,0.273v20.49c0,0.182-0.093,0.275-0.275,0.275h-1.896
		c-0.151,0-0.245-0.062-0.306-0.215c-0.427-0.919-1.131-2.079-1.711-2.999l-8.716-12.779c-0.397-0.643-0.794-1.346-1.007-1.804
		c-0.126-0.275-0.433-0.186-0.368,0.121c0.121,0.764,0.213,1.803,0.213,2.904v14.496c0,0.182-0.092,0.275-0.277,0.275h-1.496
		C348.236,74.626,348.143,74.532,348.143,74.351z"/>
	<path id="cccamp_signet" fill-rule="evenodd" clip-rule="evenodd" fill="#FFFFFF" d="M58.307,23.615
		c-0.293-0.656-0.561-1.327-0.891-1.965c-0.19-0.369-0.226-0.692,0.194-0.803c0.188-0.052,0.591,0.154,0.673,0.343
		c0.795,1.831,1.638,3.651,2.273,5.541c0.418,1.244,1.245,1.521,2.336,1.502c2.235-0.041,4.469-0.139,6.704-0.167
		c4.812-0.066,9.625-0.135,14.438-0.145c1.772-0.005,3.546,0.112,5.316,0.235c3.365,0.233,6.729,0.508,10.09,0.776
		c0.901,0.072,1.809,0.135,2.693,0.304c1.048,0.199,1.619-0.379,2.003-1.161c0.63-1.278,1.157-2.608,1.744-3.909
		c0.096-0.211,0.276-0.387,0.419-0.58c0.14,0.21,0.285,0.419,0.421,0.635c0.043,0.065,0.067,0.145,0.115,0.244
		c0.083-0.041,0.185-0.056,0.208-0.108c0.198-0.423,0.318-1.126,0.891-0.922c0.593,0.21,1.149,0.706,1.537,1.217
		c0.159,0.212-0.096,0.829-0.292,1.192c-0.44,0.818-0.992,1.577-1.441,2.393c-0.275,0.501-0.773,0.975,0.1,1.563
		c0.452,0.307,0.488,1.172,0.825,1.714c1.222,1.965,2.479,3.906,3.75,5.84c0.94,1.428,1.96,2.805,2.876,4.247
		c0.583,0.918,1.03,1.919,1.555,2.872c0.146,0.266,0.308,0.562,0.543,0.731c0.982,0.712,1.379,1.737,1.717,2.84
		c0.104,0.338,0.592,0.539,0.791,0.869c0.816,1.358,1.587,2.74,2.377,4.112c0.111,0.195,0.203,0.514,0.362,0.554
		c1.56,0.413,1.641,1.935,2.099,3.024c1.194,2.83,2.125,5.769,3.195,8.651c0.342,0.921,0.754,1.821,1.213,2.69
		c0.123,0.229,0.534,0.432,0.814,0.43c2.112-0.006,4.224-0.082,6.338-0.095c0.307-0.001,0.616,0.227,0.925,0.347
		c-0.287,0.228-0.577,0.651-0.859,0.648c-0.664-0.009-0.677,0.263-0.655,0.792c0.052,1.165-0.507,1.569-1.642,1.404
		c-0.778-0.112-1.579-0.087-2.368-0.097c-0.788-0.009-0.885,0.733-1.158,1.204c-0.743,1.287-1.365,2.646-2.104,3.938
		c-1.151,2.008-2.332,3.999-3.546,5.972c-1.345,2.187-2.728,4.35-4.118,6.509c-3.071,4.766-6.145,9.526-9.241,14.275
		c-1.219,1.87-2.438,3.747-3.78,5.528c-0.684,0.909-0.518,1.651-0.14,2.559c0.896,2.151,1.748,4.321,2.549,6.509
		c0.115,0.313-0.031,0.979-0.264,1.109c-0.509,0.282-1.148,0.345-1.743,0.438c-0.068,0.011-0.226-0.344-0.29-0.547
		c-0.402-1.249-0.774-2.507-1.184-3.752c-0.262-0.799-0.562-1.585-0.855-2.374c-0.089-0.236-0.195-0.655-0.317-0.665
		c-1.291-0.096-1.702-1.645-3.033-1.73c-2.595-0.163-5.179-0.557-7.775-0.646c-2.482-0.084-4.978,0.021-7.458,0.179
		c-5.041,0.323-10.074,0.729-15.11,1.117c-2.11,0.164-4.214,0.387-6.325,0.543c-1.487,0.108-2.98,0.14-4.469,0.241
		c-0.213,0.015-0.509,0.196-0.602,0.383c-0.816,1.642-1.619,3.289-2.375,4.958c-0.503,1.11-0.828,1.388-1.9,1.027
		c-0.507-0.171-0.578,0.024-0.833,0.318c-0.325,0.375-0.776,0.639-1.174,0.951c-0.109-0.148-0.335-0.332-0.304-0.438
		c0.096-0.319,0.292-0.606,0.448-0.906c0.078-0.148,0.25-0.331,0.213-0.445c-0.344-1.075,0.505-1.704,0.926-2.47
		c0.843-1.531,1.779-3.012,2.639-4.534c0.119-0.213,0.123-0.625-0.006-0.819c-0.494-0.74-0.83-1.557-1.242-2.332
		c-2.157-4.063-4.452-8.056-6.696-12.072c-0.221-0.395-0.402-0.777-1.009-0.631c-0.177,0.041-0.54-0.227-0.651-0.439
		c-1.146-2.196-2.284-4.4-3.377-6.624c-2.388-4.87-5.019-9.599-7.953-14.16c-0.888-1.38-2.074-2.219-3.786-2.034
		c-1.199,0.13-2.388,0.379-3.588,0.447c-0.397,0.022-0.963-0.25-1.186-0.572c-0.243-0.35-0.29-0.935-0.207-1.378
		c0.061-0.325,0.27-0.529-0.128-0.778c-0.139-0.087-0.154-0.376-0.225-0.572c0.177-0.038,0.354-0.109,0.529-0.108
		c0.884,0.004,1.771-0.007,2.65,0.062c0.498,0.039,0.985,0.231,1.482,0.329c1.128,0.224,2.256,0.45,3.392,0.627
		c0.192,0.03,0.499-0.134,0.622-0.304c0.61-0.847,1.185-1.724,1.756-2.597c0.268-0.412,0.377-0.744-0.198-1.103
		c-0.54-0.335-0.675-0.908-0.31-1.548c0.683-1.193,1.266-2.443,1.979-3.616c2.593-4.268,5.167-8.547,7.864-12.749
		c1.201-1.869,2.73-3.522,4.011-5.344c1.671-2.378,3.231-4.832,4.866-7.234c0.793-1.168,1.632-2.309,2.476-3.438
		c0.459-0.613,0.533-1.042-0.267-1.462c-0.451-0.235-0.842-0.672-1.135-1.102c-0.697-1.027-1.316-2.109-1.972-3.165
		c-0.393-0.629-0.692-1.14-0.017-1.895C56.812,23.153,57.192,22.975,58.307,23.615z M105.632,32.724
		c-4.88,8.022-9.697,15.936-14.513,23.851c0.085,0.055,0.17,0.11,0.256,0.166c0.633-0.825,1.258-1.656,1.902-2.472
		c0.151-0.19,0.41-0.497,0.545-0.464c0.697,0.173,0.941-0.365,1.297-0.727c0.296-0.301,0.554-0.641,0.862-0.928
		c0.126-0.12,0.337-0.149,0.51-0.221c0.027,0.208,0.09,0.423,0.068,0.627c-0.013,0.117-0.158,0.221-0.249,0.328
		c-1.732,2.009-3.367,4.113-5.221,6.003c-2.392,2.438-4.559,5.005-6.057,8.098c-0.322,0.666,0.161,2.627,0.803,3.003
		c0.105,0.062,0.272,0.042,0.408,0.029c3.535-0.305,7.07-0.585,10.602-0.928c3.425-0.329,6.844-0.726,10.269-1.075
		c0.244-0.025,0.506,0.102,0.761,0.158c-0.215,0.264-0.381,0.633-0.659,0.763c-0.369,0.175-0.824,0.17-1.243,0.231
		c-1.143,0.169-2.286,0.333-3.428,0.498c0.005,0.071,0.011,0.144,0.016,0.215c0.214,0.038,0.428,0.106,0.642,0.105
		c1.839-0.012,3.68-0.065,5.518-0.052c1.926,0.017,3.85,0.152,5.772,0.123c1.831-0.025,3.66-0.183,5.488-0.312
		c2.245-0.157,4.487-0.335,6.727-0.542c0.153-0.014,0.436-0.431,0.39-0.525c-0.275-0.547-0.52-1.269-0.991-1.513
		c-0.501-0.263-0.564-0.622-0.747-0.999c-0.279-0.579-0.517-1.183-0.852-1.725c-0.638-1.032-1.381-2.001-1.991-3.045
		c-1.9-3.259-3.747-6.548-5.638-9.81c-1.444-2.491-2.912-4.967-4.393-7.435c-1.812-3.023-3.654-6.028-5.477-9.047
		C106.548,34.341,106.114,33.559,105.632,32.724z M55.626,70.76c0-0.063,0-0.125,0-0.188c-0.232-0.024-0.463-0.063-0.696-0.069
		c-1.86-0.057-3.72-0.103-5.58-0.171c-0.302-0.011-0.612-0.088-0.895-0.194c-0.101-0.041-0.203-0.285-0.171-0.399
		c0.033-0.109,0.229-0.233,0.362-0.243c0.637-0.053,1.278-0.089,1.919-0.095c1.549-0.013,3.1-0.013,4.648-0.007
		c5.454,0.021,10.908,0.02,16.361,0.076c2.848,0.029,5.695,0.162,8.544,0.241c1.292,0.034,2.213-1.538,1.585-2.702
		c-0.335-0.619-0.698-1.225-1.045-1.838c-1.082-1.917-2.117-3.861-3.25-5.745c-2.912-4.839-5.884-9.64-8.796-14.479
		c-1.968-3.269-3.871-6.575-5.819-9.854c-0.233-0.393-0.574-0.721-0.865-1.079c-0.264,0.394-0.554,0.772-0.778,1.188
		c-0.09,0.164-0.024,0.41-0.054,0.615c-0.043,0.283-0.036,0.61-0.181,0.837c-0.394,0.617-0.903,1.163-1.286,1.788
		c-1.868,3.056-3.724,6.117-5.555,9.195c-1.049,1.765-2.098,3.537-3.04,5.363c-0.606,1.17-0.732,1.271-1.883,0.574
		c-0.132-0.079-0.52,0.005-0.595,0.13c-1.928,3.255-3.824,6.532-5.741,9.793c-1.144,1.948-2.315,3.879-3.472,5.819
		c-0.137,0.228-0.261,0.465-0.389,0.698c0.265,0.08,0.524,0.21,0.794,0.236c2.38,0.225,4.756,0.523,7.142,0.618
		c2.471,0.1,4.951,0.002,7.427-0.02C54.754,70.847,55.19,70.793,55.626,70.76z M103.482,107.301
		c-1.408-2.752-2.595-5.268-3.957-7.686c-1.564-2.778-3.361-5.426-4.906-8.214c-1.364-2.46-2.501-5.046-3.773-7.559
		c-0.968-1.911-1.961-3.813-2.996-5.691c-0.757-1.375-1.756-2.633-2.357-4.064c-0.579-1.379-1.315-1.996-2.824-1.748
		c-0.551,0.09-0.923,0.162-1.185,0.713c-0.846,1.771-1.715,3.533-2.635,5.267c-1.331,2.514-2.79,4.963-4.059,7.505
		c-1.999,4.008-3.793,8.122-5.853,12.095c-1.53,2.954-3.341,5.763-5.038,8.631c-0.208,0.352-0.237,0.6,0.242,0.641
		c1.404,0.125,2.811,0.24,4.218,0.331c0.185,0.011,0.513-0.108,0.549-0.232c0.177-0.602,0.609-0.657,1.124-0.674
		c0.735-0.02,1.468-0.088,2.203-0.127c3.543-0.186,7.089,0.19,10.646-0.309c1.595-0.224,3.298-0.206,4.984,0.219
		c1.842,0.463,3.786,0.575,5.695,0.709c2.042,0.144,4.095,0.147,6.144,0.19C100.883,107.321,102.063,107.301,103.482,107.301z
		 M110.282,98.765c-0.508,0-0.809,0-1.111,0c0.147-0.268,0.255-0.57,0.449-0.801c1.261-1.503,2.559-2.978,3.81-4.488
		c1.022-1.232,2.113-2.429,2.968-3.773c1.397-2.195,2.631-4.494,3.927-6.753c1.129-1.969,2.294-3.92,3.363-5.921
		c0.808-1.515,1.451-3.114,2.243-4.637c0.352-0.676,0.105-0.722-0.462-0.679c-1.521,0.116-3.042,0.298-4.565,0.319
		c-3.479,0.053-6.959,0.012-10.438,0.029c-7.501,0.041-15.002,0.094-22.503,0.142c-0.977,0.008-0.999,0.055-0.522,0.914
		c1.545,2.784,3.134,5.544,4.613,8.362c1.257,2.396,2.283,4.917,3.596,7.277c1.542,2.771,3.365,5.388,4.916,8.152
		c1.525,2.722,2.855,5.55,4.284,8.324c0.119,0.231,0.334,0.413,0.505,0.618c0.168-0.183,0.367-0.345,0.499-0.553
		c0.678-1.053,1.311-2.137,2.013-3.174C108.634,100.991,109.463,99.899,110.282,98.765z M83.482,65.57
		c0.282-0.592,0.493-1.139,0.789-1.636c1.254-2.103,2.541-4.185,3.8-6.281c0.944-1.57,1.883-3.146,2.792-4.738
		c1.005-1.756,1.923-3.566,2.974-5.294c1.537-2.526,3.181-4.987,4.736-7.502c0.937-1.51,1.8-3.063,2.687-4.604
		c0.78-1.356,1.545-2.72,2.42-4.26c-2.348-0.207-4.451-0.379-6.55-0.585c-0.582-0.056-1.108-0.168-1.397,0.551
		c-0.069,0.171-0.413,0.298-0.645,0.328c-0.701,0.089-1.408,0.157-2.113,0.166c-2.039,0.021-4.079-0.026-6.117,0.029
		c-0.672,0.019-1.433,0.114-1.982,0.451c-0.706,0.435-1.361,0.331-2.07,0.28c-1.889-0.142-3.777-0.371-5.667-0.385
		c-2.914-0.022-5.828,0.083-8.739,0.177c-1.534,0.052-3.065,0.193-4.682,0.301C70.335,43.614,76.885,54.553,83.482,65.57z
		 M41.49,72.557c0.102,0.205,0.152,0.329,0.222,0.442c1.617,2.651,3.275,5.277,4.844,7.957c1.397,2.383,2.685,4.83,4.041,7.238
		c0.797,1.414,1.675,2.782,2.447,4.209c1.243,2.297,2.451,4.614,3.626,6.946c0.532,1.052,0.992,2.148,1.399,3.254
		c0.116,0.314-0.078,0.739-0.113,1.115c-0.024,0.256-0.127,0.584-0.011,0.763c0.784,1.203,1.617,2.375,2.48,3.625
		c0.256-0.34,0.501-0.611,0.681-0.921c0.378-0.651,0.697-1.337,1.086-1.981c1.167-1.938,2.394-3.841,3.525-5.797
		c0.893-1.543,1.704-3.134,2.507-4.727c0.856-1.694,1.671-3.411,2.487-5.126c0.708-1.489,1.354-3.014,2.103-4.481
		c0.938-1.842,1.956-3.645,2.933-5.467c0.073-0.137,0.083-0.306,0.122-0.461c-0.067-0.034-0.134-0.065-0.201-0.1
		c-0.969,1.688-1.938,3.374-2.925,5.09c-0.231-0.168-0.387-0.811-0.826-0.179c-0.075,0.107-0.398,0.042-0.607,0.057
		c0.012-0.2-0.044-0.444,0.05-0.594c0.549-0.885,1.14-1.743,1.705-2.618c1.697-2.624,3.383-5.258,5.087-7.88
		c0.297-0.457,0.21-0.636-0.324-0.668c-1.215-0.074-2.427-0.239-3.639-0.234c-4.268,0.015-8.539-0.005-12.8,0.17
		c-2.334,0.098-4.645,0.725-6.978,0.818c-3.012,0.122-6.035-0.022-9.052-0.11C44.102,72.861,42.848,72.681,41.49,72.557z"/>
</g>
</svg>
